<svg width="278" height="278" viewBox="0 0 278 278" fill="none" xmlns="http://www.w3.org/2000/svg">
<rect width="278" height="278" fill="white"/>
<mask id="mask0" mask-type="alpha" maskUnits="userSpaceOnUse" x="11" y="11" width="255" height="255">
<circle cx="138.5" cy="138.5" r="127.5" fill="black"/>
</mask>
<g mask="url(#mask0)">
<circle cx="138.5" cy="138.5" r="127.5" fill="#2C3747"/>
<mask id="mask1" mask-type="alpha" maskUnits="userSpaceOnUse" x="6" y="9" width="130" height="257">
<path fill-rule="evenodd" clip-rule="evenodd" d="M135.417 9.28966C135.25 9.28902 135.083 9.2887 134.915 9.2887C64.2037 9.2887 6.88086 66.6116 6.88086 137.323C6.88086 208.034 64.2037 265.357 134.915 265.357C135.083 265.357 135.25 265.357 135.417 265.356V9.28966Z" fill="#F4F4F4"/>
</mask>
<g mask="url(#mask1)">
<path fill-rule="evenodd" clip-rule="evenodd" d="M135.417 9.28966C135.25 9.28902 135.083 9.2887 134.915 9.2887C64.2037 9.2887 6.88086 66.6116 6.88086 137.323C6.88086 208.034 64.2037 265.357 134.915 265.357C135.083 265.357 135.25 265.357 135.417 265.356V9.28966Z" fill="#2C3747"/>
<circle cx="136.146" cy="137.501" r="101.5" fill="#C5CFDD"/>
<path d="M107.875 127.625C113.581 127.625 118.25 122.956 118.25 117.25C118.25 111.544 113.581 106.875 107.875 106.875C102.169 106.875 97.5 111.544 97.5 117.25C97.5 122.956 102.169 127.625 107.875 127.625ZM170.125 127.625C175.831 127.625 180.5 122.956 180.5 117.25C180.5 111.544 175.831 106.875 170.125 106.875C164.419 106.875 159.75 111.544 159.75 117.25C159.75 122.956 164.419 127.625 170.125 127.625ZM139 184.688C161.203 184.688 179.67 169.125 184.443 148.375H93.5575C98.33 169.125 116.797 184.688 139 184.688ZM139 55C93.0388 55 56 92.1425 56 138C56 183.858 93.0388 221 139 221C184.961 221 222 183.858 222 138C222 92.1425 184.858 55 139 55ZM139 205.438C101.754 205.438 71.5625 175.246 71.5625 138C71.5625 100.754 101.754 70.5625 139 70.5625C176.246 70.5625 206.438 100.754 206.438 138C206.438 175.246 176.246 205.438 139 205.438Z" fill="#2C3747"/>
</g>
<mask id="mask2" mask-type="alpha" maskUnits="userSpaceOnUse" x="145" y="5" width="124" height="255">
<path fill-rule="evenodd" clip-rule="evenodd" d="M145 259.999C145.161 260 145.322 260 145.483 260C213.504 260 268.646 202.916 268.646 132.5C268.646 62.0837 213.504 5.00002 145.483 5.00003C145.322 5.00003 145.161 5.00035 145 5.00099L145 259.999Z" fill="#F4F4F4"/>
</mask>
<g mask="url(#mask2)">
<rect x="202.646" y="220" width="113" height="12" rx="5.99999" transform="rotate(-180 202.646 220)" fill="#9CBCFC"/>
<rect x="176.646" y="239" width="86" height="12" rx="5.99999" transform="rotate(-180 176.646 239)" fill="#C5CFDD"/>
<rect x="220.646" y="201" width="148" height="12" rx="5.99999" transform="rotate(-180 220.646 201)" fill="#E06D6D"/>
<rect x="232" y="182" width="67" height="12" rx="5.99999" transform="rotate(-180 232 182)" fill="#E7C05B"/>
<rect x="236" y="163" width="56" height="12" rx="5.99999" transform="rotate(-180 236 163)" fill="#F4F4F4"/>
<rect x="89.6462" y="56" width="112" height="12" rx="6" fill="#E15A33"/>
<rect x="89.5286" y="36.7188" width="86.6341" height="12" rx="6" fill="white"/>
<rect x="72.6462" y="75" width="148" height="12" rx="5.99999" fill="#EE7A69"/>
<rect x="59.6462" y="94" width="171" height="12" rx="5.99999" fill="#56BCF9"/>
<rect x="178" y="113" width="59" height="12" rx="6" fill="#5FCC8A"/>
<rect x="140" y="113" width="19" height="12" rx="6" fill="#5FCC8A"/>
<rect x="46.6462" y="132" width="192" height="12" rx="5.99999" fill="#9863F6"/>
</g>
</g>
</svg>
